PathFileType	4	(X/Y/Z)	/Users/itak/Documents/Research/Walk-IL/dataset/trc/00181_00008.trc
DataRate	CameraRate	NumFrames	NumMarkers	Units	OrigDataRate	OrigDataStartFrame	OrigNumFrames
100.000000	100.000000	4	53	mm	100.000000	297	794
Frame#	Time	RPSI			LPSI			L3			STRN			T10			C7			CLAV			RBAK			LBAK			LSHO			LUPA			LAEL			LAOL			LWTS			LWPS			LFRA			LIFD			LHPS			LHTS			RSHO			RUPA			RAEL			RAOL			RWTS			RWPS			RFRA			RIFD			RHTS			RHPS			RBHD			LFHD			RFHD			LBHD			LHIP			RHIP			RASI			LASI			LKNE			LTHI			LANK			LTIP			LTOE			LMT1			LMT5			LHEE			RKNE			RTHI			RANK			RTIP			RTOE			RMT1			RMT5			RHEE			
		X1	Y1	Z1	X2	Y2	Z2	X3	Y3	Z3	X4	Y4	Z4	X5	Y5	Z5	X6	Y6	Z6	X7	Y7	Z7	X8	Y8	Z8	X9	Y9	Z9	X10	Y10	Z10	X11	Y11	Z11	X12	Y12	Z12	X13	Y13	Z13	X14	Y14	Z14	X15	Y15	Z15	X16	Y16	Z16	X17	Y17	Z17	X18	Y18	Z18	X19	Y19	Z19	X20	Y20	Z20	X21	Y21	Z21	X22	Y22	Z22	X23	Y23	Z23	X24	Y24	Z24	X25	Y25	Z25	X26	Y26	Z26	X27	Y27	Z27	X28	Y28	Z28	X29	Y29	Z29	X30	Y30	Z30	X31	Y31	Z31	X32	Y32	Z32	X33	Y33	Z33	X34	Y34	Z34	X35	Y35	Z35	X36	Y36	Z36	X37	Y37	Z37	X38	Y38	Z38	X39	Y39	Z39	X40	Y40	Z40	X41	Y41	Z41	X42	Y42	Z42	X43	Y43	Z43	X44	Y44	Z44	X45	Y45	Z45	X46	Y46	Z46	X47	Y47	Z47	X48	Y48	Z48	X49	Y49	Z49	X50	Y50	Z50	X51	Y51	Z51	X52	Y52	Z52	X53	Y53	Z53	

298	2.97	988.8683471679688	1028.970825195312	-200.1967010498047	878.5279541015625	1027.375122070312	-145.6385498046875	932.5861206054688	1066.380859375	-172.36328125	813.2567749023438	1278.311157226562	-404.240234375	928.1852416992188	1221.942993164062	-128.3802947998047	877.756103515625	1489.072998046875	-176.4380798339844	811.880859375	1391.014526367188	-370.6708068847656	1010.451721191406	1319.90673828125	-161.8549499511719	787.2891845703125	1458.000854492188	-133.5773773193359	690.3468017578125	1447.029296875	-178.6473693847656	629.3276977539062	1311.283325195312	-140.9739227294922	589.7233276367188	1101.661743164062	-197.4125213623047	671.4004516601562	1071.518798828125	-177.0481262207031	562.977294921875	941.3348388671875	-398.3188781738281	549.1483154296875	883.1447143554688	-326.7113952636719	562.3245849609375	1003.70849609375	-249.0914916992188	557.46044921875	786.5130615234375	-501.2444763183594	537.8177490234375	831.9052734375	-377.7535400390625	530.19677734375	875.6015625	-435.7870483398438	1022.670288085938	1479.011108398438	-302.2725219726562	1096.393920898438	1417.750366210938	-309.0047912597656	1177.409057617188	1137.816284179688	-316.6664428710938	1087.280151367188	1121.679321289062	-282.3332824707031	1140.453002929688	914.259033203125	-458.8989562988281	1203.91650390625	898.8075561523438	-398.8237915039062	1193.387939453125	1068.106567382812	-349.6251220703125	1130.015747070312	735.3031616210938	-481.8078308105469	1147.212646484375	820.324951171875	-489.39697265625	1198.365112304688	816.7369384765625	-428.2376403808594	920.9513549804688	1648.055541992188	-236.5363616943359	728.265625	1712.015380859375	-318.1095275878906	845.858642578125	1728.2060546875	-372.0762634277344	802.2252197265625	1636.20751953125	-169.9933929443359	729.4993286132812	960.0291748046875	-192.6871185302734	1034.885131835938	998.156982421875	-400.5083618164062	947.6785888671875	1026.648193359375	-442.8507080078125	716.868896484375	1004.076354980469	-328.0206909179688	836.0797119140625	470.3184814453125	-256.4009704589844	779.400634765625	609.4409790039062	-243.2115631103516	963.3208618164062	39.49248123168945	-146.6584167480469	893.3097534179688	248.9683380126953	-206.2755737304688	933.8478393554688	35.43659973144531	-363.6907043457031	993.0941162109375	29.67764091491699	-327.3291931152344	899.5518798828125	36.1552848815918	-242.5469360351562	1039.9423828125	41.44728088378906	-112.308464050293	929.0560302734375	540.7327270507812	-584.9579467773438	989.7785034179688	796.9673461914062	-517.2650756835938	900.7783203125	48.63666534423828	-687.0145263671875	895.9607543945312	432.8290100097656	-624.12451171875	761.8776245117188	140.8360137939453	-828.52001953125	751.1546020507812	125.4449920654297	-761.0977783203125	862.77001953125	79.03108978271484	-792.943115234375	873.8875732421875	36.58745574951172	-607.2275390625	
299	2.98	985.871337890625	1027.569580078125	-209.6587066650391	876.2213134765625	1026.040649414062	-153.6353149414062	929.9927368164062	1065.00830078125	-181.0463409423828	808.0184936523438	1276.924194335938	-412.0278930664062	925.9237060546875	1220.590576171875	-137.1652679443359	874.94189453125	1487.721557617188	-184.8338775634766	807.029296875	1389.577514648438	-378.4208374023438	1007.836181640625	1318.483520507812	-171.5583343505859	784.9998168945312	1456.752197265625	-141.0033569335938	687.4561157226562	1445.663696289062	-185.0012054443359	627.0003662109375	1309.8134765625	-146.5722351074219	587.1951293945312	1100.006713867188	-202.7357788085938	669.1565551757812	1070.081420898438	-183.1463928222656	559.4473266601562	941.2490844726562	-404.7623596191406	546.0594482421875	882.4421997070312	-333.595703125	559.5682983398438	1002.337524414062	-255.010986328125	553.3997192382812	787.4356689453125	-509.0794677734375	534.3909301757812	831.6622924804688	-385.0824890136719	526.50439453125	875.9012451171875	-442.625244140625	1018.590148925781	1477.555541992188	-312.2194213867188	1092.241333007812	1416.351440429688	-319.6423645019531	1173.663818359375	1136.735717773438	-327.5995483398438	1083.8154296875	1120.245849609375	-292.3128662109375	1136.891723632812	912.0113525390625	-468.0098266601562	1201.065185546875	897.5015869140625	-408.4253540039062	1189.73046875	1067.02783203125	-360.2799682617188	1127.951904296875	732.9188842773438	-489.3226623535156	1144.103393554688	817.9575805664062	-497.8688354492188	1195.904052734375	815.2159423828125	-437.1072387695312	917.431640625	1646.49462890625	-244.8488922119141	724.4255981445312	1710.835327148438	-325.5218200683594	841.8098754882812	1726.801879882812	-379.9900512695312	799.0028686523438	1634.814331054688	-177.7268218994141	726.6370849609375	959.0267944335938	-199.1450042724609	1029.686767578125	996.4573974609375	-410.6033020019531	942.0392456054688	1025.123901367188	-452.0639038085938	712.213134765625	1002.692077636719	-334.6097412109375	833.2770385742188	469.6327209472656	-259.9385986328125	776.716064453125	608.6100463867188	-247.5011444091797	963.5272216796875	39.93265151977539	-146.8454437255859	891.898193359375	248.9775390625	-208.0321655273438	933.6808471679688	35.40609741210938	-363.7176818847656	993.0260009765625	29.74441337585449	-327.4708862304688	899.5472412109375	36.05462646484375	-242.5053558349609	1040.217407226562	42.59296417236328	-112.615837097168	921.13818359375	539.5296020507812	-593.2093505859375	984.2626342773438	794.8568115234375	-526.5916137695312	883.0128784179688	50.19475555419922	-705.9631958007812	885.5834350585938	433.7366638183594	-633.541259765625	740.9561767578125	147.8000183105469	-840.7039184570312	732.3046875	130.9629058837891	-773.4188232421875	842.6730346679688	84.61117553710938	-810.2555541992188	858.73046875	37.28717803955078	-625.4642944335938	
300	2.99	982.768310546875	1026.164306640625	-219.0857696533203	873.7762451171875	1024.734985351562	-161.6577453613281	927.2713012695312	1063.643798828125	-189.7526245117188	802.7901611328125	1275.49609375	-419.84423828125	923.523681640625	1219.282470703125	-145.9500732421875	871.9906616210938	1486.417602539062	-193.301025390625	802.1410522460938	1388.127197265625	-386.2330017089844	1005.084899902344	1317.117797851562	-181.2330474853516	782.5762939453125	1455.556762695312	-148.5514984130859	684.4418334960938	1444.276977539062	-191.5125122070312	624.6122436523438	1308.316650390625	-152.2776947021484	584.7215576171875	1098.231567382812	-207.8952484130859	666.9738159179688	1068.690795898438	-189.1413116455078	556.0328979492188	940.791015625	-410.8441162109375	543.1737060546875	881.43505859375	-340.0393371582031	556.9602661132812	1000.766723632812	-260.6488037109375	549.5018920898438	787.8714599609375	-516.3325805664062	531.2193603515625	831.0451049804688	-391.8851623535156	522.9490356445312	875.7568359375	-448.9836730957031	1014.429077148438	1476.12451171875	-322.1782531738281	1088.009887695312	1414.967407226562	-330.2413024902344	1169.783203125	1135.626708984375	-338.458984375	1080.228881835938	1118.837158203125	-302.2470092773438	1133.253540039062	909.849609375	-477.1824035644531	1198.044067382812	896.2223510742188	-418.0348815917969	1185.939453125	1065.935302734375	-370.8793640136719	1125.498413085938	730.1466064453125	-496.7835693359375	1140.966430664062	815.7538452148438	-506.5106506347656	1193.290649414062	813.748291015625	-446.0724182128906	913.819091796875	1644.920776367188	-253.1808166503906	720.5031127929688	1709.682250976562	-332.9118347167969	837.6581420898438	1725.454833984375	-387.8710327148438	795.6911010742188	1633.36279296875	-185.4862670898438	723.6716918945312	958.0667724609375	-205.7031555175781	1024.426513671875	994.7139282226562	-420.6402893066406	936.3927001953125	1023.589172363281	-461.27490234375	707.576904296875	1001.329895019531	-341.2728881835938	830.543701171875	468.9823608398438	-263.5797729492188	774.005859375	607.8272705078125	-251.8721923828125	963.8109741210938	40.49416351318359	-147.0561370849609	890.3641967773438	249.1266784667969	-209.8488616943359	933.5161743164062	35.35923385620117	-363.7212524414062	992.9486694335938	29.82220840454102	-327.6169128417969	899.5738525390625	35.96644592285156	-242.4520111083984	1040.600341796875	43.95777893066406	-112.998046875	912.9685668945312	538.4260864257812	-601.4766845703125	978.7776489257812	792.7472534179688	-535.9295654296875	866.1254272460938	51.49874496459961	-722.7391967773438	875.2283325195312	434.4254760742188	-642.640380859375	721.5144653320312	153.7694549560547	-851.3433227539062	714.6903686523438	135.6001892089844	-784.2579956054688	824.1762084960938	90.04817199707031	-825.568115234375	844.3391723632812	37.96025085449219	-641.7046508789062	
301	3	979.5591430664062	1024.7958984375	-228.4741363525391	871.1854248046875	1023.483459472656	-169.7332000732422	924.4035034179688	1062.310668945312	-198.4959869384766	797.5584716796875	1274.056396484375	-427.6817932128906	920.9912719726562	1218.040283203125	-154.7349090576172	868.9049682617188	1485.183227539062	-201.8388214111328	797.2118530273438	1386.689453125	-394.0993957519531	1002.193969726562	1315.829833984375	-190.8854675292969	780.007568359375	1454.428100585938	-156.2175598144531	681.3076782226562	1442.890869140625	-198.1733856201172	622.165283203125	1306.813598632812	-158.1051483154297	582.2980346679688	1096.369262695312	-212.9098815917969	664.853759765625	1067.38232421875	-195.0369873046875	552.729248046875	939.9513549804688	-416.5657653808594	540.4854125976562	880.124755859375	-346.0345764160156	554.5018310546875	999.0215454101562	-266.0142211914062	545.7703857421875	787.7958374023438	-522.9896240234375	528.30908203125	830.044189453125	-398.1437377929688	519.5247192382812	875.1522216796875	-454.8536682128906	1010.18310546875	1474.741455078125	-332.1441955566406	1083.69970703125	1413.621704101562	-340.80224609375	1165.758666992188	1134.513549804688	-349.2444458007812	1076.522583007812	1117.4990234375	-312.1242980957031	1129.529663085938	907.80029296875	-486.4213562011719	1194.837890625	894.9884643554688	-427.6438598632812	1182.006225585938	1064.853637695312	-381.4245910644531	1122.644287109375	727.0418701171875	-504.1973266601562	1137.779174804688	813.7130737304688	-515.3086547851562	1190.50048828125	812.3448486328125	-455.1180725097656	910.1119995117188	1643.358764648438	-261.5380859375	716.4965209960938	1708.575317382812	-340.283935546875	833.4038696289062	1724.18994140625	-395.7281188964844	792.29345703125	1631.878173828125	-193.2761993408203	720.5947875976562	957.1563720703125	-212.341796875	1019.077819824219	992.9801025390625	-430.6163330078125	930.6998901367188	1022.076477050781	-470.4715270996094	703.0157470703125	1000.005187988281	-347.9635314941406	827.9053955078125	468.3660888671875	-267.3346862792969	771.2593383789062	607.1090698242188	-256.3342895507812	964.1505126953125	41.19879150390625	-147.2928009033203	888.7462768554688	249.4207000732422	-211.7300109863281	933.3521728515625	35.29413986206055	-363.7008972167969	992.8565673828125	29.90833854675293	-327.7630004882812	899.6237182617188	35.88579940795898	-242.3910980224609	1041.061401367188	45.56259155273438	-113.448616027832	904.5911865234375	537.4329223632812	-609.787109375	973.2103271484375	790.7327270507812	-545.2902221679688	850.218994140625	52.34506607055664	-737.3126831054688	864.97412109375	434.8339538574219	-651.4679565429688	703.618408203125	158.5021514892578	-860.5352172851562	698.3687133789062	139.1879730224609	-793.6849975585938	807.2420654296875	94.86490631103516	-838.900634765625	830.7866821289062	38.47521591186523	-655.8878173828125	
